<?xml version="1.0" encoding="iso-8859-1"?>
<!-- Generator: Adobe Illustrator 19.0.0, SVG Export Plug-In . SVG Version: 6.00 Build 0)  -->
<svg version="1.1" id="Layer_1" xmlns="http://www.w3.org/2000/svg" xmlns:xlink="http://www.w3.org/1999/xlink" x="0px" y="0px"
	 viewBox="0 0 512 512" style="enable-background:new 0 0 512 512;" xml:space="preserve">
<polygon style="fill:#FFE777;" points="116.1,267.427 8.166,424.851 503.825,424.851 503.825,87.149 "/>
<polygon style="fill:#FEDC3D;" points="317.959,256 181.462,179.745 181.462,267.427 255.996,344.968 330.53,267.427 "/>
<polygon style="fill:#FFF1B1;" points="181.462,267.427 8.166,424.851 8.166,87.149 181.462,180.278 "/>
<polygon style="fill:#FFE777;" points="194.044,256 181.462,267.427 8.166,87.149 "/>
<polygon style="fill:#FFF1B1;" points="471.145,121.148 471.145,395.166 330.53,267.427 "/>
<polygon style="fill:#FFFFFF;" points="8.166,87.149 255.996,312.287 503.825,87.149 "/>
<path d="M503.83,78.979H8.17c-4.513,0-8.17,3.658-8.17,8.17v337.702c0,4.512,3.657,8.17,8.17,8.17h495.66
	c4.513,0,8.17-3.658,8.17-8.17V87.149C512,82.637,508.343,78.979,503.83,78.979z M495.66,416.681H16.34V95.319H495.66V416.681z"/>
<path d="M38.102,397.661c1.612,1.775,3.828,2.677,6.05,2.677c1.961,0,3.926-0.702,5.491-2.123l144.4-131.177l56.464,51.293
	c1.558,1.415,3.525,2.123,5.494,2.123c1.968,0,3.936-0.707,5.494-2.123l56.465-51.294l144.404,131.181
	c1.565,1.422,3.531,2.123,5.491,2.123c2.222,0,4.437-0.902,6.05-2.677c3.034-3.34,2.787-8.507-0.554-11.541L330.108,256
	l143.24-130.123c3.34-3.034,3.588-8.201,0.554-11.541c-3.035-3.34-8.202-3.586-11.542-0.553L256,301.246L49.642,113.786
	c-3.338-3.033-8.506-2.788-11.542,0.553c-3.034,3.34-2.787,8.507,0.554,11.541L181.892,256L38.655,386.12
	C35.315,389.154,35.067,394.321,38.102,397.661z"/>
<g>
</g>
<g>
</g>
<g>
</g>
<g>
</g>
<g>
</g>
<g>
</g>
<g>
</g>
<g>
</g>
<g>
</g>
<g>
</g>
<g>
</g>
<g>
</g>
<g>
</g>
<g>
</g>
<g>
</g>
</svg>
