<svg xmlns="http://www.w3.org/2000/svg" viewBox="0 0 4000 4000"><g fill-rule="evenodd"><path d="M1134 1012c-22 2-54 6-72 10l-73 14a401 401 0 00-105 34 592 592 0 00-292 286L580 1390c-10 22-13 36-18 82-11 98-3 245 16 274 3 5 8 19 12 32 7 22 16 38 45 76l21 30c6 10 22 26 34 36 13 10 30 25 40 35 10 9 22 18 27 20 5 0 15 6 22 12 7 5 20 12 28 15l30 15c8 5 25 13 36 17 12 4 28 11 37 16a160 160 0 00 36 14c11 3 38 10 60 18a7633 7633 0 00 248 79c108 31 197 97 216 159 16 57 4 180-18 180-2 0-7 5-10 12-20 38-87 78-150 90-194 35-354-50-386-206-3-17-10-40-14-54s-9-38-10-55c-2-25-5-34-13-43l-10-12H550l-10 12c-12 14-12 12-11 50 0 58 9 116 20 150a560 560 0 01 16 58c3 13 8 30 12 36s10 23 16 36a230 230 0 00 23 44c7 10 13 22 13 24a8664 8664 0 01 46 66 590 590 0 00 318 200l70 15c40 10 235 10 276 0 15-4 50-10 76-15 30-6 56-13 70-20l43-18c11-3 25-10 30-14l33-20a558 558 0 00 242-281 660 660 0 00-16-417c-4-12-18-38-30-57-14-18-29-40-34-49a627 627 0 00-125-110c-7-6-14-10-16-10-3 0-16-7-30-15s-37-20-49-23-30-11-38-16c-9-5-34-14-56-20l-66-18c-94-30-114-37-148-44a623 623 0 01-94-28c-10-2-33-10-49-18l-31-14c-13 0-71-47-91-74-38-50-39-158-3-206a229 229 0 01 93-75c57-35 201-32 277 7 54 28 92 62 112 100 4 8 11 20 17 27 7 10 12 25 17 55 15 80-6 72 196 76l162 3 8-13c9-16 6-95-4-130l-18-60a473 473 0 00-82-158 520 520 0 00-110-111l-48-37a525 525 0 00-108-54c-12-4-29-10-37-15-45-22-210-44-297-39m1028 34c-10 10-10 16-10 937 2 883 2 904 10 913 7 8 7 8 313 8 320 0 355-1 421-18 20-5 50-12 66-14a190 190 0 00 42-12l42-16a780 780 0 00 300-211c55-69 62-80 90-137a300 300 0 01 20-35c4-5 10-19 14-30 4-12 11-30 17-40s10-28 13-40c4-23 4-25 18-61a310 310 0 00 14-58c2-19 10-60 15-90a1250 1250 0 00-45-544 817 817 0 00-182-315 1007 1007 0 00-141-115l-57-30a693 693 0 00-248-80c-96-17-696-27-712-12m657 330c38 5 82 23 142 59a483 483 0 01 146 173 733 733 0 01 55 170l13 74a991 991 0 01-48 438 130 130 0 01-15 35 453 453 0 01-90 135 209 209 0 01-53 43 326 326 0 01-67 38c-104 51-368 60-390 12a41130 41130 0 01 0-1165c10-18 195-25 307-12" fill="silver"/><path d="M424 8c0 7-3 8-31 9l-31 1-1 15-1 15h-30c-31 0-34 2-34 22 0 8-2 10-12 10-24 0-37 5-41 16-3 9-8 12-20 15-15 3-17 4-18 16-1 10-3 13-10 13-18 0-23 4-23 18 0 13 0 14-14 14s-18 5-18 22c0 8-2 10-13 10-12 2-13 4-16 18-3 13-6 18-15 20C85 248 80 260 80 286c0 9-2 11-10 11-20 0-22 3-22 34v30H33l-15 2-1 31c-1 28-2 31-10 31C0 424 0 438 0 2000s0 1576 8 1576c7 0 8 3 9 31l1 31 15 1 15 1v30c0 31 2 34 22 34 10 0 10 1 10 25 0 27 4 35 19 35 7 0 10 3 11 16 3 15 4 16 16 16 13 0 14 0 15 15 0 14 2 15 16 16 14 1 15 2 16 16 0 14 2 15 16 16 14 1 15 2 15 15s0 14 16 16c13 3 16 5 16 12 0 14 8 18 35 18 24 0 25 0 25 10 0 20 3 22 34 22h30v15l2 15 31 1c28 1 31 2 31 10 0 7 14 7 1576 7s1576 0 1576-8c0-7 3-8 31-9l31-1 1-15 1-15h30c31 0 34-2 34-22 0-10 1-10 25-10 27 0 35-4 35-19 0-7 2-9 10-9 17 0 22-4 22-18 0-13 0-14 15-15 14 0 15-2 16-16 1-14 2-15 16-16 14 0 15-2 16-16 1-14 2-15 15-15 14 0 18-5 18-22 0-8 2-10 10-10 14 0 18-8 18-35 0-24 0-25 10-25 20 0 22-3 22-34v-30h15l15-2 1-31c1-28 2-31 10-31 7 0 7-14 7-1574s0-1574-8-1574c-7 0-8-3-9-33l-1-33-15-1-15-1v-30c0-31-2-34-22-34-10 0-10-1-10-25 0-27-4-35-18-35-7 0-10-3-12-16-2-15-3-16-16-16-12 0-14-1-14-10 0-17-4-22-18-22-13 0-14 0-14-14s-5-18-22-18c-8 0-10-2-10-13-2-12-4-13-18-16-13-3-18-6-20-15-5-11-18-16-42-16-10 0-12-2-12-10 0-20-3-22-34-22h-30V33l-2-15-31-1c-28-1-31-2-31-10 0-7-14-7-1576-7S424 0 424 8m910 1020a706 706 0 01 134 38 525 525 0 01 156 90 552 552 0 01 210 330c10 35 13 114 4 130l-8 13-162-3c-202-4-181 4-196-76-5-30-10-45-17-55-6-7-13-20-17-27-50-99-218-158-349-123-14 4-32 11-40 16-8 6-20 11-24 13a230 230 0 00-69 62c-36 48-35 156 3 206A282 282 0 00 1080 1730a260 260 0 00 50 18 538 538 0 00 93 28c34 7 54 13 148 44l66 19a340 340 0 01 56 19c9 5 26 12 38 16s34 14 48 23 28 15 30 15c3 0 10 4 17 10s15 10 20 12c13 4 91 78 105 98l33 50a316 316 0 01 43 84 660 660 0 01-26 458 558 558 0 01-245 232c-5 4-19 10-30 14l-43 18c-14 7-40 14-70 20l-76 15c-41 10-235 10-276 0l-70-15a350 350 0 01-104-36l-32-16L830 2840a590 590 0 01-280-396c-12-34-20-92-21-150 0-38-1-36 10-50l10-12H860l10 12c8 10 10 18 13 43 1 17 6 42 10 55l14 54c32 155 192 240 386 206 63-12 130-52 150-90 3-7 8-12 10-12 22 0 34-123 18-180-19-62-108-128-216-160l-58-17-90-30A7633 7633 0 01 910 2050c-9-5-25-12-37-16-11-4-27-11-36-17s-22-12-30-15c-8-3-20-10-28-15a90 90 0 00-22-13c-5-1-17-10-27-20l-40-34c-12-10-27-26-34-36l-20-30a233 233 0 01-46-76l-12-32c-19-30-27-176-16-274 5-46 8-60 18-82l12-34a160 160 0 01 18-38 592 592 0 01 452-296 685 685 0 01 273 6m1367 16c189 5 306 31 420 94l57 30c8 0 116 88 141 115a523 523 0 01 104 139 817 817 0 01 92 222 270 270 0 01 16 62c2 20 10 60 15 88a1250 1250 0 01-90 667c-4 5-13 20-20 35a542 542 0 01-92 137 768 768 0 01-449 253c-66 17-100 18-421 18-306 0-306 0-313-8-8-9-8-30-10-913 0-921 0-926 10-937 7-7 327-8 540-2m-134 328c-42 3-50 5-56 16a41130 41130 0 00 0 1165c22 47 286 40 390-11a326 326 0 00 67-39c15-7 28-18 53-43a487 487 0 00 90-135c5-6 11-22 15-35s10-33 15-44a310 310 0 00 18-76c5-30 11-70 15-86a991 991 0 00-13-305 733 733 0 00-66-193 490 490 0 00-135-151c-60-36-104-54-142-59-40-5-200-7-251-4" fill="#040404"/></g></svg>
