<svg xmlns="http://www.w3.org/2000/svg" viewBox="0 0 64 64"><g data-name="Filled outline"><rect width="46" height="54" x="11" y="3" fill="#6d1415"/><polygon fill="#f7fcff" points="53 17 53 61 7 61 7 7 43 7 53 17"/><polygon fill="#eb2335" points="7 7 7 25 53 25 53 17 43 7 7 7"/><path fill="#911a1c" d="M53,17H45a2,2,0,0,1-2-2V7Z"/><path fill="#1e120b" d="M40.535 48.8H35.819l-4.677-8.86 2.435-4.216a4.13 4.13 0 10-7.154 0l2.435 4.216L24.181 48.8H19.465a4.1 4.1 0 103.567 6.121L25.367 50.8h9.266l2.335 4.121A4.1 4.1 0 1040.535 48.8zM21.292 53.935A2.1 2.1 0 1119.465 50.8h3.6zm6.864-19.211a2.13 2.13 0 113.688 0L30 37.918zM26.442 48.8L30 42.061 33.558 48.8zm15.921 5.135a2.1 2.1 0 01-3.655 0L36.932 50.8h3.6a2.1 2.1 0 011.828 3.135zM15.5 10H12a1 1 0 00-1 1V21a1 1 0 002 0V17h2.5a3.5 3.5 0 000-7zm0 5H13V12h2.5a1.5 1.5 0 010 3zM24 10H22a1 1 0 00-1 1V21a1 1 0 001 1h2a5.006 5.006 0 005-5V15A5.006 5.006 0 0024 10zm3 7a3 3 0 01-3 3H23V12h1a3 3 0 013 3zM38 10H32a1 1 0 00-1 1V21a1 1 0 002 0V17h4a1 1 0 000-2H33V12h5a1 1 0 000-2z"/><circle cx="53" cy="43" r="1" fill="#1e120b"/><path fill="#1e120b" d="M57,2H11a1,1,0,0,0-1,1V6H7A1,1,0,0,0,6,7V61a1,1,0,0,0,1,1H53a1,1,0,0,0,1-1V58h3a1,1,0,0,0,1-1V3A1,1,0,0,0,57,2ZM8,8H42v7a3,3,0,0,0,3,3h7v6H8Zm36,7V9.414L50.586,16H45A1,1,0,0,1,44,15ZM56,56H54V47a1,1,0,0,0-2,0V60H8V26H52V39a1,1,0,0,0,2,0V17a1,1,0,0,0-.293-.707l-10-10A1,1,0,0,0,43,6H12V4H56Z"/></g></svg>